<svg xmlns="http://www.w3.org/2000/svg" viewBox="0 0 24 24" aria-hidden="true">
  <path fill="#25D366" d="M12 2a9.7 9.7 0 0 0-8.4 14.6L2.5 22l5.5-1.4A9.7 9.7 0 1 0 12 2Z"/>
  <path fill="#fff" d="M16.9 14.4c-.3-.2-1.8-.9-2-.9-.3-.1-.5-.2-.7.2-.2.3-.8.9-.9 1.1-.2.2-.3.2-.6.1a7.9 7.9 0 0 1-3.9-3.4c-.2-.3 0-.5.1-.6l.5-.6c.1-.2.2-.3.3-.5.1-.2 0-.4 0-.5l-.9-2c-.2-.5-.5-.4-.7-.4h-.6c-.2 0-.5.1-.8.4-.3.3-1 1-1 2.4s1.1 2.8 1.2 3c.2.2 2.1 3.2 5.1 4.5.7.3 1.3.5 1.7.6.7.2 1.4.2 1.9.1.6-.1 1.8-.7 2-1.4.3-.7.3-1.3.2-1.4 0-.2-.3-.3-.6-.5Z"/>
</svg>
